<svg width="152" height="64" viewBox="0 0 152 64" fill="none" xmlns="http://www.w3.org/2000/svg">
<rect width="152" height="64" rx="4" fill="#D73B3B"/>
<path d="M32.12 25.928C33.3573 25.8427 34.4507 25.8 35.4 25.8C38.0347 25.8 39.352 26.68 39.352 28.44C39.352 29.1867 39.1707 29.8533 38.808 30.44C38.4453 31.0267 37.8213 31.416 36.936 31.608L40.136 37H38.648L35.512 31.704H33.448V37H32.12V25.928ZM35.4 25.96C34.7813 25.96 34.1307 25.9973 33.448 26.072V31.544H35.816C37.32 31.48 38.072 30.456 38.072 28.472C38.072 27.6613 37.848 27.0427 37.4 26.616C36.952 26.1787 36.2853 25.96 35.4 25.96ZM48.0974 25.8V25.96H43.0574V30.76H47.7294V30.92H43.0574V36.84H48.4494V37H41.7294V25.8H48.0974ZM56.0396 26.472C55.069 26.0987 54.1516 25.912 53.2876 25.912C52.4343 25.912 51.7676 26.0933 51.2876 26.456C50.8076 26.8187 50.5676 27.32 50.5676 27.96C50.5676 28.7387 50.973 29.3413 51.7836 29.768C52.1463 29.9493 52.541 30.12 52.9676 30.28C53.405 30.4293 53.8423 30.6 54.2796 30.792C54.717 30.984 55.117 31.2027 55.4796 31.448C55.8423 31.6933 56.1356 32.0347 56.3596 32.472C56.5836 32.8987 56.6956 33.448 56.6956 34.12C56.6956 34.7813 56.509 35.3467 56.1356 35.816C55.7623 36.2853 55.309 36.6053 54.7756 36.776C54.253 36.936 53.6396 37.016 52.9356 37.016C51.6236 37.016 50.5036 36.6907 49.5756 36.04L49.6556 35.912C50.0076 36.1893 50.461 36.4187 51.0156 36.6C51.581 36.7707 52.157 36.856 52.7436 36.856C53.6076 36.856 54.3436 36.6587 54.9516 36.264C55.5703 35.8587 55.8796 35.2667 55.8796 34.488C55.8796 33.6347 55.4743 32.968 54.6636 32.488C54.301 32.2747 53.901 32.0773 53.4636 31.896C53.037 31.7147 52.605 31.528 52.1676 31.336C51.7303 31.1333 51.3303 30.9093 50.9676 30.664C50.157 30.1307 49.7516 29.3733 49.7516 28.392C49.7516 27.6133 50.013 26.984 50.5356 26.504C51.0583 26.0133 51.8423 25.768 52.8876 25.768C53.9436 25.768 55.0156 25.9493 56.1036 26.312L56.0396 26.472ZM61.6698 37H60.3418V25.96H57.5738V25.8H64.4538V25.96H61.6698V37ZM64.3283 37H64.1363L68.9203 25.8L69.0963 25.72L73.1283 37H71.7683L70.5203 33.48H65.8483L64.3283 37ZM68.4243 27.528L65.9123 33.32H70.4723L68.4243 27.528ZM82.4254 25.8H82.6334V32.2C82.6334 33.8747 82.3027 35.1067 81.6414 35.896C80.98 36.6747 80.116 37.064 79.0494 37.064C78.3774 37.064 77.8067 37.0053 77.3374 36.888C76.868 36.76 76.4254 36.5307 76.0094 36.2C75.156 35.5387 74.7294 34.2053 74.7294 32.2V25.8H76.0574V32.184C76.0574 34.1253 76.3507 35.4213 76.9374 36.072C77.236 36.392 77.5454 36.6107 77.8654 36.728C78.196 36.8453 78.5907 36.904 79.0494 36.904C80.0734 36.904 80.8894 36.5307 81.4974 35.784C82.116 35.0267 82.4254 33.8267 82.4254 32.184V25.8ZM84.6356 25.928C85.873 25.8427 86.9663 25.8 87.9156 25.8C90.5503 25.8 91.8676 26.68 91.8676 28.44C91.8676 29.1867 91.6863 29.8533 91.3236 30.44C90.961 31.0267 90.337 31.416 89.4516 31.608L92.6516 37H91.1636L88.0276 31.704H85.9636V37H84.6356V25.928ZM87.9156 25.96C87.297 25.96 86.6463 25.9973 85.9636 26.072V31.544H88.3316C89.8356 31.48 90.5876 30.456 90.5876 28.472C90.5876 27.6613 90.3636 27.0427 89.9156 26.616C89.4676 26.1787 88.801 25.96 87.9156 25.96ZM93.797 37H93.605L98.389 25.8L98.565 25.72L102.597 37H101.237L99.989 33.48H95.317L93.797 37ZM97.893 27.528L95.381 33.32H99.941L97.893 27.528ZM104.17 37H103.962V25.8H104.506L111.162 36.152V25.8H111.37V37H110.202L104.17 27.72V37ZM116.982 37H115.654V25.96H112.886V25.8H119.766V25.96H116.982V37Z" fill="white"/>
<mask id="mask0_3_37" style="mask-type:alpha" maskUnits="userSpaceOnUse" x="0" y="0" width="152" height="64">
<rect width="152" height="64" rx="4" fill="#D73B3B"/>
</mask>
<g mask="url(#mask0_3_37)">
<rect x="49" y="63.5113" width="120" height="30" transform="rotate(-16.2161 49 63.5113)" fill="#D73B3B"/>
<rect x="49" y="63.5113" width="10" height="10" transform="rotate(-16.2161 49 63.5113)" fill="white"/>
<rect x="68.2043" y="57.9261" width="10" height="10" transform="rotate(-16.2161 68.2043 57.9261)" fill="white"/>
<rect x="80.5991" y="64.7356" width="10" height="10" transform="rotate(-16.2161 80.5991 64.7356)" fill="white"/>
<rect x="87.4086" y="52.3409" width="10" height="10" transform="rotate(-16.2161 87.4086 52.3409)" fill="white"/>
<rect x="99.8034" y="59.1504" width="10" height="10" transform="rotate(-16.2161 99.8034 59.1504)" fill="white"/>
<rect x="112.198" y="65.96" width="10" height="10" transform="rotate(-16.2161 112.198 65.96)" fill="white"/>
<rect x="106.613" y="46.7557" width="10" height="10" transform="rotate(-16.2161 106.613 46.7557)" fill="white"/>
<rect x="119.008" y="53.5652" width="10" height="10" transform="rotate(-16.2161 119.008 53.5652)" fill="white"/>
<rect x="131.402" y="60.3747" width="10" height="10" transform="rotate(-16.2161 131.402 60.3747)" fill="white"/>
<rect x="125.817" y="41.1704" width="10" height="10" transform="rotate(-16.2161 125.817 41.1704)" fill="white"/>
<rect x="138.212" y="47.98" width="10" height="10" transform="rotate(-16.2161 138.212 47.98)" fill="white"/>
<rect x="150.607" y="54.7895" width="10" height="10" transform="rotate(-16.2161 150.607 54.7895)" fill="white"/>
<rect x="145.022" y="35.5852" width="10" height="10" transform="rotate(-16.2161 145.022 35.5852)" fill="white"/>
</g>
</svg>
